<?xml version="1.0" encoding="utf-8"?>
<!-- Generator: Adobe Illustrator 22.1.0, SVG Export Plug-In . SVG Version: 6.00 Build 0)  -->
<svg version="1.1" id="Layer_1" xmlns="http://www.w3.org/2000/svg" xmlns:xlink="http://www.w3.org/1999/xlink" x="0px" y="0px"
	 viewBox="0 0 88.5 40" style="enable-background:new 0 0 88.5 40;" xml:space="preserve">
<style type="text/css">
	.st0{fill:#5379BA;}
	.st1{fill:none;stroke:#FFFFFF;stroke-width:3;}
	.st2{fill:none;stroke:#FFFFFF;stroke-width:2;}
	.st3{enable-background:new    ;}
	.st4{fill:#FFFFFF;}
</style>
<rect y="-0.3" class="st0" width="88.5" height="40.5"/>
<g transform="translate(3938.6 -95)">
	<g>
		<path class="st0" d="M-3931,102.8h29.3c1.1,0,2,0.9,2,2v19.1c0,1.1-0.9,2-2,2h-29.3c-1.1,0-2-0.9-2-2v-19.1
			C-3933,103.6-3932.1,102.8-3931,102.8z"/>
		<path class="st1" d="M-3931,104.3h29.3c0.3,0,0.5,0.2,0.5,0.5v19.1c0,0.3-0.2,0.5-0.5,0.5h-29.3c-0.3,0-0.5-0.2-0.5-0.5v-19.1
			C-3931.5,104.5-3931.3,104.3-3931,104.3z"/>
	</g>
	<path class="st2" d="M-3900.2,104.1l-16.6,9.8l-15.8-9.8"/>
</g>
<g class="st3">
	<path class="st4" d="M47,16c-0.5-0.6-0.8-1.6-0.8-3c0-1.5,0.3-2.6,0.8-3.3c0.6-0.7,1.4-1.1,2.6-1.1c2.2,0,3.3,1.2,3.3,3.7l-0.1,1.1
		h-5.1c0,0.6,0.1,1,0.2,1.3s0.4,0.5,0.7,0.7c0.3,0.1,0.7,0.2,1.3,0.2c0.3,0,0.7,0,1.1,0c0.4,0,0.8,0,1.1-0.1l0.4,0l0,1.2
		c-1.2,0.2-2.3,0.3-3,0.3C48.3,16.9,47.5,16.6,47,16z M51.4,12.2c0-0.9-0.1-1.5-0.4-1.8c-0.3-0.4-0.7-0.5-1.4-0.5
		c-0.7,0-1.2,0.2-1.5,0.6c-0.3,0.4-0.5,1-0.5,1.8H51.4z"/>
	<path class="st4" d="M54.6,8.7h1.5v0.5c0.4-0.2,0.8-0.4,1.2-0.5s0.7-0.2,1.1-0.2c0.4,0,0.8,0.1,1.2,0.2c0.4,0.1,0.6,0.3,0.8,0.6
		c0.4-0.2,0.9-0.4,1.4-0.6s1-0.2,1.5-0.2c0.7,0,1.2,0.1,1.6,0.4c0.4,0.3,0.6,0.7,0.8,1.2c0.2,0.6,0.2,1.3,0.2,2.3v4.3h-1.5v-4.2
		c0-0.7,0-1.2-0.1-1.6s-0.2-0.6-0.4-0.8S63.4,9.9,63,9.9c-0.3,0-0.6,0-0.9,0.1c-0.3,0.1-0.6,0.2-0.8,0.3l-0.3,0.1
		c0.1,0.5,0.2,1.2,0.2,2.2v4.2h-1.5v-4.1c0-0.7,0-1.3-0.1-1.6c-0.1-0.4-0.2-0.7-0.4-0.8s-0.5-0.2-0.9-0.2c-0.3,0-0.6,0-0.9,0.1
		c-0.3,0.1-0.6,0.2-0.8,0.3l-0.3,0.1v6.3h-1.5V8.7z"/>
	<path class="st4" d="M68.1,16.3c-0.4-0.4-0.6-1-0.6-1.8c0-0.8,0.2-1.4,0.6-1.7s1.1-0.6,1.9-0.7l2.3-0.2v-0.6c0-0.5-0.1-0.8-0.3-1
		c-0.2-0.2-0.5-0.3-0.9-0.3c-0.9,0-1.9,0.1-3.1,0.2L68,9c1.1-0.3,2.2-0.4,3.2-0.4c0.9,0,1.6,0.2,2,0.6c0.4,0.4,0.6,1.1,0.6,2v3.9
		c0,0.2,0.1,0.4,0.2,0.5c0.1,0.1,0.3,0.2,0.6,0.2l0,1.2c-0.5,0-0.8-0.1-1.2-0.2c-0.3-0.1-0.6-0.3-0.8-0.5c-0.9,0.4-1.8,0.6-2.7,0.6
		C69.1,16.9,68.5,16.7,68.1,16.3z M72,15.4l0.3-0.1v-2.4l-2.1,0.2c-0.4,0-0.7,0.2-0.9,0.4S69,14,69,14.4c0,0.9,0.4,1.3,1.1,1.3
		C70.8,15.7,71.4,15.6,72,15.4z"/>
	<path class="st4" d="M76.1,5.6h1.5v1.6h-1.5V5.6z M76.1,8.7h1.5v8h-1.5V8.7z"/>
	<path class="st4" d="M79.9,5.4h1.5v11.4h-1.5V5.4z"/>
</g>
<g class="st3">
	<path class="st4" d="M46.9,22.7h1.5v0.5c0.5-0.3,0.9-0.4,1.2-0.5s0.8-0.2,1.2-0.2c0.7,0,1.2,0.1,1.6,0.4c0.4,0.3,0.7,0.7,0.8,1.2
		c0.2,0.6,0.2,1.3,0.2,2.3v4.3H52v-4.2c0-0.7,0-1.2-0.1-1.6s-0.2-0.6-0.4-0.8s-0.5-0.2-1-0.2c-0.6,0-1.2,0.1-1.8,0.4l-0.3,0.1v6.3
		h-1.5V22.7z"/>
	<path class="st4" d="M56,30c-0.5-0.6-0.8-1.6-0.8-3c0-1.5,0.3-2.6,0.8-3.3c0.6-0.7,1.4-1.1,2.6-1.1c2.2,0,3.3,1.2,3.3,3.7l-0.1,1.1
		h-5.1c0,0.6,0.1,1,0.2,1.3s0.4,0.5,0.7,0.7c0.3,0.1,0.7,0.2,1.3,0.2c0.3,0,0.7,0,1.1,0c0.4,0,0.8,0,1.1-0.1l0.4,0l0,1.2
		c-1.2,0.2-2.3,0.3-3,0.3C57.4,30.9,56.5,30.6,56,30z M60.4,26.2c0-0.9-0.1-1.5-0.4-1.8c-0.3-0.4-0.7-0.5-1.4-0.5
		c-0.7,0-1.2,0.2-1.5,0.6c-0.3,0.4-0.5,1-0.5,1.8H60.4z"/>
	<path class="st4" d="M63,22.7h1.5l1.4,6.7h0.3l1.7-6.6h1.6l1.7,6.6h0.3l1.4-6.7h1.5l-1.8,8h-2.4l-1.4-5.8l-1.5,5.8h-2.4L63,22.7z"
		/>
	<path class="st4" d="M76,30.7l-0.5-0.1l0.1-1.3c1.3,0.2,2.2,0.3,2.8,0.3c0.6,0,1-0.1,1.3-0.3s0.4-0.4,0.4-0.8
		c0-0.3-0.1-0.5-0.2-0.6c-0.1-0.1-0.3-0.3-0.6-0.3s-0.5-0.1-1-0.2L78,27.3c-0.6-0.1-1.1-0.2-1.4-0.4s-0.6-0.4-0.8-0.7
		c-0.2-0.3-0.3-0.7-0.3-1.2c0-1.7,1-2.5,3-2.5c0.6,0,1.4,0.1,2.4,0.2l0.5,0.1l0,1.2c-1.2-0.2-2.1-0.3-2.8-0.3c-1.1,0-1.6,0.3-1.6,1
		c0,0.2,0.1,0.4,0.2,0.6c0.1,0.1,0.3,0.2,0.5,0.3c0.2,0.1,0.5,0.1,0.9,0.2c0.1,0,0.2,0,0.4,0.1c0.6,0.1,1.1,0.3,1.5,0.4
		c0.4,0.2,0.6,0.4,0.8,0.7s0.3,0.7,0.3,1.2c0,0.9-0.3,1.5-0.8,1.9c-0.5,0.4-1.3,0.6-2.4,0.6C77.8,30.9,77,30.8,76,30.7z"/>
</g>
</svg>
