<svg xmlns="http://www.w3.org/2000/svg" viewBox="0 0 41 41">
  <defs>
    <style>
      .cls-1 {
        fill: #5379ba;
      }

      .cls-2 {
        fill: #fffefe;
        fill-rule: evenodd;
      }
    </style>
  </defs>
  <g id="Group_311" data-name="Group 311" transform="translate(-3884 113)">
    <rect id="Rectangle_108" data-name="Rectangle 108" class="cls-1" width="41" height="41" transform="translate(3884 -113)"/>
    <g id="Instagram" transform="translate(2640 -952)">
      <path id="Path_3" data-name="Path 3" class="cls-2" d="M15.5,2.755a47.514,47.514,0,0,1,6.2.172,7.986,7.986,0,0,1,2.927.517,6.047,6.047,0,0,1,2.927,2.927A7.986,7.986,0,0,1,28.065,9.3c0,1.55.172,2.066.172,6.2a47.514,47.514,0,0,1-.172,6.2,7.986,7.986,0,0,1-.517,2.927,6.047,6.047,0,0,1-2.927,2.927,7.986,7.986,0,0,1-2.927.517c-1.55,0-2.066.172-6.2.172a47.514,47.514,0,0,1-6.2-.172,7.986,7.986,0,0,1-2.927-.517,6.047,6.047,0,0,1-2.927-2.927,7.986,7.986,0,0,1-.517-2.927c0-1.55-.172-2.066-.172-6.2a47.514,47.514,0,0,1,.172-6.2,7.986,7.986,0,0,1,.517-2.927A6.184,6.184,0,0,1,4.649,4.649,2.911,2.911,0,0,1,6.371,3.444,7.986,7.986,0,0,1,9.3,2.927a47.514,47.514,0,0,1,6.2-.172M15.5,0A50.874,50.874,0,0,0,9.125.172,10.63,10.63,0,0,0,5.338.861,6.74,6.74,0,0,0,2.583,2.583,6.74,6.74,0,0,0,.861,5.338,7.845,7.845,0,0,0,.172,9.125,50.874,50.874,0,0,0,0,15.5a50.874,50.874,0,0,0,.172,6.371,10.63,10.63,0,0,0,.689,3.788A6.74,6.74,0,0,0,2.583,28.41a6.74,6.74,0,0,0,2.755,1.722,10.63,10.63,0,0,0,3.788.689,50.874,50.874,0,0,0,6.371.172,50.874,50.874,0,0,0,6.371-.172,10.63,10.63,0,0,0,3.788-.689,7.224,7.224,0,0,0,4.477-4.477,10.63,10.63,0,0,0,.689-3.788c0-1.722.172-2.238.172-6.371a50.874,50.874,0,0,0-.172-6.371,10.63,10.63,0,0,0-.689-3.788A6.74,6.74,0,0,0,28.41,2.583,6.74,6.74,0,0,0,25.655.861,10.63,10.63,0,0,0,21.867.172,50.874,50.874,0,0,0,15.5,0m0,7.576a7.793,7.793,0,0,0-7.92,7.92,7.92,7.92,0,1,0,7.92-7.92m0,13.086A5.073,5.073,0,0,1,10.331,15.5,5.073,5.073,0,0,1,15.5,10.331,5.073,5.073,0,0,1,20.661,15.5,5.073,5.073,0,0,1,15.5,20.661M23.761,5.338a1.894,1.894,0,1,0,1.894,1.894,1.911,1.911,0,0,0-1.894-1.894" transform="translate(1249 844)"/>
    </g>
  </g>
</svg>
